<?xml version="1.0" standalone="no"?><!DOCTYPE svg PUBLIC "-//W3C//DTD SVG 1.1//EN" "http://www.w3.org/Graphics/SVG/1.1/DTD/svg11.dtd"><svg t="1770980007931" class="icon" viewBox="0 0 1024 1024" version="1.1" xmlns="http://www.w3.org/2000/svg" p-id="2605" xmlns:xlink="http://www.w3.org/1999/xlink" width="200" height="200"><path d="M977.92 58.88v335.36c0 33.28-12.8 56.32-40.96 71.68-2.56 2.56-5.12 5.12-10.24 7.68 5.12 2.56 7.68 5.12 10.24 5.12 28.16 15.36 40.96 35.84 40.96 71.68-2.56 117.76 0 235.52 0 353.28 0 30.72-7.68 40.96-40.96 40.96h-35.84c-23.04 0-46.08 0-66.56-15.36-10.24-7.68-28.16-12.8-43.52-12.8H399.36l-2.56 28.16h-94.72c0-2.56-2.56-2.56-2.56-2.56-2.56-25.6-2.56-25.6-28.16-25.6h-76.8c-23.04 0-23.04 0-23.04 23.04 0 2.56 0 5.12-2.56 7.68H87.04c-15.36 0-25.6-10.24-25.6-25.6V58.88h916.48zM409.6 522.24v258.56H808.96c35.84-2.56 46.08-12.8 46.08-48.64v-133.12c0-61.44-12.8-74.24-74.24-74.24H427.52c-7.68-2.56-12.8-2.56-17.92-2.56z m0-117.76H796.16c48.64 0 56.32-10.24 56.32-56.32V243.2c0-20.48 0-38.4-2.56-56.32 0-20.48-10.24-33.28-30.72-35.84-15.36-2.56-28.16-2.56-43.52-2.56H412.16l-2.56 256z m-122.88 58.88v-48.64c0-10.24-2.56-15.36-15.36-15.36H186.88c-10.24 0-12.8 2.56-12.8 12.8v102.4c0 7.68 2.56 12.8 12.8 12.8h89.6c10.24 0 12.8-5.12 12.8-15.36-2.56-15.36-2.56-33.28-2.56-48.64zM174.08 212.48v48.64c0 12.8 2.56 17.92 15.36 15.36h84.48c10.24 0 15.36-2.56 15.36-15.36V161.28c0-10.24-5.12-12.8-15.36-12.8H189.44c-10.24 0-15.36 2.56-15.36 15.36v48.64z m0 442.88v120.32c0 2.56 7.68 7.68 10.24 7.68h89.6c2.56 0 10.24-7.68 10.24-10.24V665.6c0-2.56-5.12-10.24-10.24-10.24H174.08z" fill="#005AA0" p-id="2606"></path></svg>