<?xml version="1.0" standalone="no"?><!DOCTYPE svg PUBLIC "-//W3C//DTD SVG 1.1//EN" "http://www.w3.org/Graphics/SVG/1.1/DTD/svg11.dtd"><svg t="1770980073205" class="icon" viewBox="0 0 1024 1024" version="1.1" xmlns="http://www.w3.org/2000/svg" p-id="3681" xmlns:xlink="http://www.w3.org/1999/xlink" width="200" height="200"><path d="M790.791853 0c127.817816 0 231.436564 103.618748 231.436564 231.436564v556.214184c0 127.817816-103.618748 231.436564-231.436564 231.436565H234.577669c-127.817816 0-231.436564-103.618748-231.436565-231.436565V231.436564C3.141104 103.618748 106.759853 0 234.577669 0h556.214184z m-278.113374 77.528736c-244.880491 0-443.398282 198.517791-443.398283 443.410847 0 244.886773 198.517791 443.404564 443.398283 443.404564 244.893055 0 443.417129-198.517791 443.417128-443.404564S757.571534 77.528736 512.684761 77.528736z m0 49.478675c217.57173 0 393.938454 176.366724 393.938454 393.932172 0 217.559166-176.366724 393.932172-393.932172 393.932172-217.559166 0-393.932172-176.373006-393.932172-393.932172 0-217.565448 176.373006-393.932172 393.932172-393.932172z m-40.451142 186.204663H372.534969l-43.724171 411.038625h99.69865l18.143018-170.555681 119.939927 171.523142h137.002405L563.74027 541.746258c-2.47519-3.247902-4.41011-6.885301-6.156564-10.57924l-0.615657-1.331828c-3.78189-8.235975-6.753374-17.458258 9.611779-33.829693l164.675534-179.156025H611.378258l-156.426994 158.757694 17.276073-162.395092z" fill="#0082FC" p-id="3682"></path></svg>