<?xml version="1.0" standalone="no"?><!DOCTYPE svg PUBLIC "-//W3C//DTD SVG 1.1//EN" "http://www.w3.org/Graphics/SVG/1.1/DTD/svg11.dtd"><svg t="1770979636578" class="icon" viewBox="0 0 1024 1024" version="1.1" xmlns="http://www.w3.org/2000/svg" p-id="12306" xmlns:xlink="http://www.w3.org/1999/xlink" width="200" height="200"><path d="M462.518121 990.324832c-9.965101-4.12349-18.383893-12.026846-48.279195-45.014765-48.622819-53.948993-77.315436-79.548993-101.025503-90.02953-8.075168-3.608054-8.418792-3.608054-25.428188-0.85906-21.132886 3.608054-26.45906 3.608054-34.877852 0.343624-7.559732-3.092617-15.806711-14.604027-27.833557-38.657718-3.951678-8.075168-9.10604-17.009396-11.339598-20.102014-4.810738-6.357047-18.212081-14.260403-24.397315-14.260403-6.357047 0-17.868456-11.511409-15.806712-15.634899 2.748993-4.98255 11.511409-6.700671 33.331544-6.700671 46.904698 0 86.077852 16.150336 121.471141 49.997315 4.295302 4.12349 9.449664 8.762416 11.339597 10.136913 13.22953 10.136913 75.253691 85.562416 101.025504 122.845638 5.154362 7.559732 13.057718 18.727517 17.35302 24.912751 9.10604 12.885906 13.573154 22.163758 11.511409 24.225504-0.687248 0.687248-3.951678 0.171812-7.044295-1.202685zM815.420134 782.432215c-9.277852-1.202685-23.881879-4.12349-32.644295-6.528859-8.590604-2.405369-29.895302-8.24698-47.420134-13.057718-17.524832-4.638926-40.204027-11.339597-50.684564-14.604027-10.308725-3.092617-28.177181-8.24698-39.516779-11.167785-11.339597-3.092617-25.256376-6.872483-30.926174-8.590605-13.057718-4.12349-39.688591-10.308725-70.442953-16.665771-21.648322-4.295302-27.489933-4.810738-58.416107-4.810739-34.018792 0-34.534228 0-44.499329 4.810739-11.339597 5.154362-16.665772 9.449664-39.688591 30.238926-8.418792 7.731544-20.102013 16.665772-25.771812 19.586577-9.10604 4.810738-12.026846 5.497987-24.053691 5.497987-21.47651 0-39.173154-6.528859-67.006712-24.912752-12.198658-8.24698-26.974497-17.696644-32.644295-21.132886-26.287248-15.978523-46.389262-19.586577-74.738255-13.401342-8.934228 2.061745-21.132886 3.608054-26.974497 3.608053-9.449664 0-11.683221-0.687248-15.291275-4.295302-4.12349-4.12349-4.295302-5.669799-1.202684-16.837583 1.889933-7.387919 49.653691-40.204027 73.191946-50.512752 30.754362-13.22953 78.002685-28.005369 97.41745-30.238926 70.958389-8.762416 154.974497 5.841611 273.181208 47.420134 17.524832 6.013423 36.080537 12.714094 41.234899 14.775839s17.181208 6.528859 26.630872 9.9651c9.449664 3.26443 25.256376 9.449664 35.221477 13.744967s20.789262 8.590604 24.053691 9.449664c7.731544 2.233557 59.275168 23.538255 90.201342 37.455034 37.97047 17.009396 38.485906 17.181208 39.516779 18.899329 0.515436 1.030872 2.233557 1.718121 3.608054 1.718121 3.26443 0 19.586577 12.198658 19.586577 14.775839 0 6.700671-14.260403 8.24698-41.922148 4.810738zM54.636242 687.420134c-7.044295-5.669799-8.934228-13.573154-7.731544-34.362416 1.889933-35.221477 20.273826-93.809396 44.499329-142.260403 8.590604-17.35302 16.150336-31.441611 16.837584-31.44161 0.515436 0 2.405369-2.920805 4.12349-6.357047 5.326174-11.167785 40.719463-61.165101 52.91812-74.738255 14.947651-16.665772 34.190604-35.221477 44.842953-43.640269 4.467114-3.436242 8.075168-7.387919 8.075168-8.590604s1.546309-2.577181 3.436242-3.264429c1.889933-0.515436 7.387919-4.467114 12.37047-8.418792 10.824161-8.762416 48.622819-35.393289 62.711409-44.155705 26.974497-16.837584 67.522148-39.173154 92.091275-51.028188 12.198658-5.841611 22.33557-10.652349 22.851007-10.652349 0.343624 0 9.277852-4.295302 19.930201-9.621476s25.943624-12.37047 34.018792-15.6349 15.463087-6.528859 16.322148-7.387919c2.405369-1.718121 33.159732-13.744966 35.221476-13.744967 0.85906 0 8.762416-3.436242 17.524833-7.559731s19.071141-8.418792 22.851006-9.621477 17.35302-6.185235 30.067114-11.167785c30.754362-12.026846 50.34094-19.414765 61.852349-23.194631 5.154362-1.718121 15.291275-5.497987 22.335571-8.590604 25.943624-11.167785 193.975839-68.381208 232.805369-79.377181 45.014765-12.714094 65.632215-15.806711 72.161074-11.167785 13.573154 9.965101-35.908725 50.169128-100.510067 81.610738-32.987919 16.150336-84.703356 39.860403-86.593289 39.860403-0.515436 0-17.696644 8.24698-38.314094 18.21208s-46.732886 22.679195-58.072483 28.005369c-11.339597 5.497987-28.005369 13.401342-36.939597 17.868457-18.383893 8.934228-58.072483 29.72349-60.821477 31.957047-1.030872 0.687248-9.965101 5.497987-19.930201 10.480537-30.238926 15.463087-85.90604 53.605369-116.488591 79.892617-14.088591 12.198658-29.551678 31.269799-34.018792 42.09396-8.762416 20.61745-10.824161 30.754362-15.978523 78.174496-3.951678 35.736913-6.528859 45.530201-15.6349 61.165101-6.013423 10.308725-18.555705 23.881879-21.991946 23.881879-0.85906 0-3.26443 1.718121-5.497986 3.779866-2.061745 2.061745-10.995973 6.700671-19.586578 10.480537-24.569128 10.480537-49.310067 16.322148-89.514094 20.961074-12.198658 1.374497-28.86443 3.951678-36.939597 5.841611s-20.445638 4.638926-27.661745 6.185234c-7.731544 1.546309-20.445638 6.357047-30.754362 11.51141-19.930201 9.621477-29.551678 18.212081-42.09396 37.455033-10.824161 16.49396-23.710067 32.300671-33.84698 41.063088-7.387919 6.528859-9.965101 7.731544-17.524832 8.418792-7.044295 0.515436-9.621477 0-13.401342-2.920806z" fill="#2385EB" p-id="12307"></path></svg>